<?xml version="1.0" encoding="UTF-8" standalone="no"?>
<!-- Created with Inkscape (http://www.inkscape.org/) -->

<svg
   xmlns:dc="http://purl.org/dc/elements/1.1/"
   xmlns:cc="http://creativecommons.org/ns#"
   xmlns:rdf="http://www.w3.org/1999/02/22-rdf-syntax-ns#"
   xmlns:svg="http://www.w3.org/2000/svg"
   xmlns="http://www.w3.org/2000/svg"
   xmlns:sodipodi="http://sodipodi.sourceforge.net/DTD/sodipodi-0.dtd"
   xmlns:inkscape="http://www.inkscape.org/namespaces/inkscape"
   width="183.83798mm"
   height="28.722841mm"
   viewBox="0 0 183.83799 28.722841"
   version="1.1"
   id="svg8"
   inkscape:version="0.92.5 (2060ec1f9f, 2020-04-08)"
   sodipodi:docname="logo.svg"
   inkscape:export-filename="/var/www/html/capodannocon/src/logo.png"
   inkscape:export-xdpi="106"
   inkscape:export-ydpi="106">
  <defs
     id="defs2" />
  <sodipodi:namedview
     id="base"
     pagecolor="#ffffff"
     bordercolor="#666666"
     borderopacity="1.0"
     inkscape:pageopacity="0.0"
     inkscape:pageshadow="2"
     inkscape:zoom="0.98994949"
     inkscape:cx="321.77073"
     inkscape:cy="77.929941"
     inkscape:document-units="mm"
     inkscape:current-layer="layer1"
     showgrid="false"
     fit-margin-top="0"
     fit-margin-left="0"
     fit-margin-right="0"
     fit-margin-bottom="0"
     inkscape:window-width="1848"
     inkscape:window-height="1016"
     inkscape:window-x="72"
     inkscape:window-y="27"
     inkscape:window-maximized="1" />
  <metadata
     id="metadata5">
    <rdf:RDF>
      <cc:Work
         rdf:about="">
        <dc:format>image/svg+xml</dc:format>
        <dc:type
           rdf:resource="http://purl.org/dc/dcmitype/StillImage" />
        <dc:title></dc:title>
      </cc:Work>
    </rdf:RDF>
  </metadata>
  <g
     inkscape:label="Livello 1"
     inkscape:groupmode="layer"
     id="layer1"
     transform="translate(354.45536,-121.55191)">
    <flowRoot
       xml:space="preserve"
       id="flowRoot832"
       style="font-style:normal;font-variant:normal;font-weight:normal;font-stretch:normal;font-size:40px;line-height:1.25;font-family:'Atteron Personal Use';-inkscape-font-specification:'Atteron Personal Use';letter-spacing:0px;word-spacing:0px;fill:#000000;fill-opacity:1;stroke:none"
       transform="scale(0.26458333)"><flowRegion
         id="flowRegion834"><rect
           id="rect836"
           width="181.67899"
           height="40.751545"
           x="233.96428"
           y="491.79526" /></flowRegion><flowPara
         id="flowPara838"></flowPara></flowRoot>    <g
       id="g861"
       transform="matrix(0.70253065,0,0,0.70253065,-71.789948,41.415388)"
       inkscape:export-xdpi="106"
       inkscape:export-ydpi="106">
      <g
         transform="matrix(0.26685166,0,0,0.26685166,-199.08744,93.8993)"
         id="g848">
        <path
           style="fill:#d2403f;stroke-width:0.26458332"
           d="m 59.120248,180.01635 c -0.354994,-0.54179 -0.350906,-0.66079 0.03925,-1.14261 0.363495,-0.4489 0.544311,-0.49109 1.093438,-0.25512 0.819036,0.35195 0.896255,1.45872 0.122856,1.76088 -0.780713,0.30502 -0.826402,0.2918 -1.255544,-0.36315 z m 63.415212,-3.31436 c -0.76401,-0.63881 -0.3406,-1.63711 0.69435,-1.63711 0.9502,0 1.25421,0.95988 0.52051,1.64343 -0.60714,0.56563 -0.53034,0.56603 -1.21486,-0.006 z m -66.655468,-1.40006 c -0.175917,-1.27906 -0.246595,-1.37738 -1.336787,-1.85962 -0.633079,-0.28004 -1.219866,-0.62051 -1.303975,-0.7566 -0.08411,-0.13609 0.416976,-0.51966 1.11352,-0.85236 1.189718,-0.56828 1.280547,-0.68508 1.499233,-1.92785 0.128034,-0.7276 0.279048,-1.37471 0.335587,-1.43801 0.05654,-0.0633 0.567486,0.33865 1.135441,0.89325 0.933494,0.91153 1.12536,0.99095 1.998307,0.82719 0.531114,-0.0996 1.135801,-0.24645 1.343748,-0.32625 0.56053,-0.21509 0.46954,0.57383 -0.200449,1.73796 l -0.578535,1.00523 0.578535,0.98054 c 0.789602,1.33828 0.763911,1.84653 -0.08292,1.64044 -0.363802,-0.0885 -0.960646,-0.2338 -1.326321,-0.3228 -0.534215,-0.13003 -0.836862,0.0259 -1.540143,0.79375 -0.481401,0.52557 -1.004477,0.95558 -1.162391,0.95558 -0.157911,0 -0.370694,-0.60771 -0.472847,-1.35045 z m 40.538992,0.66356 c -1.943389,-1.05371 -1.699295,-3.33611 1.375476,-12.8614 2.29846,-7.12038 3.60888,-12.11806 4.60359,-17.55718 0.31986,-1.74901 0.70062,-3.21423 0.84614,-3.25605 0.4123,-0.11849 1.14162,3.1497 1.61357,7.2306 0.5342,4.61917 0.39078,12.76278 -0.29142,16.54758 -1.2291,6.81896 -3.38668,10.33681 -6.32221,10.30816 -0.596945,-0.006 -1.41826,-0.1911 -1.825146,-0.41171 z m -11.100311,-1.98014 c -0.629867,-0.36686 -0.582171,-1.33653 0.111078,-2.25823 0.315753,-0.4198 1.960284,-2.19203 3.654509,-3.93828 1.694225,-1.74625 3.533817,-3.74055 4.087982,-4.43177 2.057752,-2.5667 1.915533,-1.2501 -0.3644,3.37343 -2.763369,5.60391 -5.602195,8.35391 -7.489169,7.25485 z m 28.656007,-0.97099 c -2.22571,-2.31028 -4.72832,-8.12593 -5.8362,-13.56236 -0.90177,-4.42509 -0.67313,-4.68044 1.11441,-1.24456 0.62119,1.19401 2.58215,4.33517 4.35767,6.98037 4.57173,6.81098 4.99182,7.78761 3.72997,8.67144 -1.09405,0.7663 -2.04315,0.52806 -3.36585,-0.84489 z m 14.24809,0.16313 c -0.66038,-0.51508 -0.67128,-0.56753 -0.29195,-1.40443 0.34349,-0.75783 0.52114,-0.86936 1.38484,-0.86936 0.93304,0 0.99991,0.0557 1.14714,0.95611 0.12837,0.78503 0.0507,1.0379 -0.43425,1.41325 -0.74458,0.57631 -0.95892,0.56497 -1.80578,-0.0956 z m -66.261225,-4.90494 c -1.054338,-1.05433 0.546418,-4.65871 3.820975,-8.60356 3.07521,-3.7047 3.77848,-4.10683 2.417786,-1.38249 -0.429866,0.86066 -1.553239,3.33256 -2.496386,5.49312 -2.157079,4.94142 -2.67368,5.56163 -3.742375,4.49293 z m 60.861815,-1.47223 c -3.82142,-1.37348 -9.50379,-8.23313 -13.71281,-16.55383 -2.48716,-4.91681 -4.67069,-10.70873 -4.15686,-11.02629 0.12229,-0.0756 1.38888,1.26129 2.81464,2.97082 1.42577,1.70953 6.11838,6.68011 10.42803,11.04573 6.06262,6.14137 7.99656,8.26358 8.54647,9.37851 0.85561,1.73474 0.87547,2.11467 0.15821,3.02651 -1.06559,1.35469 -2.44307,1.74605 -4.07768,1.15855 z m -38.313261,-2.59026 c -0.977051,-0.76855 -1.082541,-1.39881 -0.467016,-2.7903 0.734874,-1.66131 1.8719,-3.16889 6.369084,-8.44478 4.291343,-5.0344 6.589069,-7.94071 8.87377,-11.22412 0.851713,-1.22402 1.593893,-2.0895 1.649293,-1.9233 0.15298,0.45894 -1.153493,4.78935 -2.356299,7.81017 -3.142737,7.8929 -7.840308,14.92777 -11.067494,16.57415 -1.325499,0.67622 -2.139974,0.67573 -3.001338,-0.002 z m -10.925697,-1.68643 c -0.748728,-0.74873 -0.899149,-1.09259 -0.896998,-2.05052 0.0087,-3.88754 6.11405,-10.41084 14.946373,-15.96965 2.768555,-1.74244 8.27695,-4.5092 8.511162,-4.27499 0.08827,0.0883 -1.124297,1.50128 -2.694599,3.14002 -3.255642,3.39752 -6.206559,6.95191 -10.725552,12.91895 -3.851217,5.08528 -5.94987,7.13577 -7.303383,7.13577 -0.713307,0 -1.152486,-0.21507 -1.837003,-0.89958 z m 58.170648,-1.09323 c -1.54853,-0.45723 -4.10371,-2.35377 -6.33281,-4.70044 -2.08358,-2.19346 -2.70772,-3.09633 -2.14044,-3.09633 0.18962,0 0.75936,0.279 1.26608,0.62001 0.50672,0.34101 2.29053,1.3672 3.96402,2.28044 5.52403,3.01448 6.10454,3.48339 5.56368,4.494 -0.35597,0.66513 -1.03294,0.7825 -2.32053,0.40232 z m 13.27667,-2.26549 c -0.72909,-0.76813 -0.86294,-0.80886 -2.16617,-0.65915 -1.50751,0.17318 -1.7411,-0.0722 -1.0006,-1.05125 0.54126,-0.71562 0.49511,-1.69561 -0.12388,-2.63026 -0.28913,-0.43656 -0.52647,-0.89161 -0.52742,-1.01122 -0.001,-0.11961 0.63498,-0.13792 1.41321,-0.0407 1.40003,0.17492 1.42384,0.16605 2.25644,-0.84086 0.69152,-0.8363 0.88656,-0.94692 1.09453,-0.62077 0.13918,0.21828 0.25488,0.67259 0.2571,1.00958 0.007,0.98816 0.4472,1.54438 1.58384,1.99917 0.58632,0.2346 1.06605,0.52285 1.06605,0.64055 0,0.1177 -0.53578,0.47431 -1.19063,0.79246 -1.06739,0.51858 -1.19062,0.67241 -1.19062,1.48629 0,0.99722 -0.21766,1.74487 -0.50798,1.74487 -0.10272,0 -0.53647,-0.36843 -0.96387,-0.81872 z m 7.13718,-0.4421 c -0.15828,-0.10692 -0.35721,-0.46882 -0.44205,-0.80423 -0.1222,-0.4831 -0.0131,-0.6635 0.52506,-0.8681 0.55518,-0.21108 0.77365,-0.15702 1.19553,0.29582 0.49292,0.52908 0.49528,0.57723 0.0525,1.06654 -0.49079,0.54232 -0.85977,0.62825 -1.331,0.30997 z m -0.32241,-4.30918 c -0.33561,-0.13464 -2.18108,-1.76559 -4.10104,-3.62433 -1.91996,-1.85874 -4.20522,-4.01177 -5.07834,-4.7845 l -1.5875,-1.40496 1.01283,0.13799 c 1.41495,0.19276 6.57838,2.80264 8.66616,4.38035 2.87642,2.17367 3.89767,4.22865 2.56526,5.1619 -0.66628,0.46668 -0.6505,0.46526 -1.47737,0.13355 z m -90.412053,-1.65872 c -1.823611,-1.82361 -1.496557,-4.17892 0.90496,-6.51713 3.45944,-3.36825 11.975737,-6.63348 21.457922,-8.22719 3.533532,-0.5939 11.90625,-1.02584 11.90625,-0.61424 0,0.13256 -1.398985,0.82128 -3.108854,1.53049 -4.102825,1.70175 -11.667453,5.57231 -16.602604,8.49499 -11.056599,6.5479 -12.729866,7.16089 -14.557674,5.33308 z m 66.864143,-0.11347 c -0.89769,-0.5457 -3.20685,-2.30187 -5.13147,-3.9026 -4.37713,-3.64051 -9.55341,-7.51565 -11.90645,-8.91356 -0.98932,-0.58775 -1.79876,-1.17412 -1.79876,-1.30306 0,-0.3236 0.0607,-0.31544 3.04271,0.40931 8.15245,1.9814 17.1315,6.65932 19.42318,10.11913 1.02243,1.54358 1.06182,2.66444 0.13247,3.76892 -0.916,1.0886 -1.74224,1.04947 -3.76168,-0.17814 z m 9.04865,-3.40967 c -0.56546,-0.38372 -1.86199,-1.37587 -2.88119,-2.20476 -1.0192,-0.8289 -2.8056,-2.20937 -3.96976,-3.06773 -2.41198,-1.77837 -2.2502,-2.09181 0.59944,-1.16132 5.8165,1.89926 10.01509,5.27467 8.47577,6.814 -0.48763,0.48763 -1.09961,0.38303 -2.22426,-0.38019 z m 1.74801,-7.37447 c -1.09141,-0.20594 -3.71079,-0.85543 -5.82084,-1.44333 -10.08994,-2.81121 -15.70497,-4.0993 -21.43125,-4.91635 -1.67349,-0.23878 -3.14296,-0.52927 -3.2655,-0.64551 -0.46963,-0.44553 3.78391,-1.40934 8.81921,-1.99836 3.84804,-0.45012 12.1202,-0.50939 15.35532,-0.11 6.92173,0.8545 11.36707,2.91433 12.03076,5.57466 0.24638,0.98758 -0.31417,2.81404 -1.00174,3.26401 -0.9032,0.59109 -2.51046,0.68537 -4.68596,0.27488 z m -77.192192,-0.95425 c -0.50094,-0.51474 -0.396806,-1.49084 0.225436,-2.11309 1.174996,-1.17499 4.523012,-2.33291 8.307377,-2.87313 2.230162,-0.31836 6.482291,-0.35926 6.482291,-0.0624 0,0.11687 -0.863203,0.48984 -1.918229,0.82882 -1.055026,0.33898 -3.88276,1.44997 -6.283854,2.46887 -4.499641,1.90941 -6.226789,2.35328 -6.813021,1.75089 z m 33.778473,-6.95853 c -0.371777,-0.37077 -9.733042,-1.23996 -16.000777,-1.48567 -7.957251,-0.31193 -9.920761,-0.51655 -11.317592,-1.17938 -1.439294,-0.68299 -1.899417,-2.29812 -1.096838,-3.85013 1.748533,-3.38129 11.097252,-2.57671 21.970931,1.89088 3.416046,1.40353 8.085304,3.90264 8.257664,4.41972 0.06735,0.20206 -0.218398,0.31452 -0.799153,0.31452 -0.497197,0 -0.953603,-0.0495 -1.014235,-0.10994 z m 1.741839,-3.40291 c -3.591948,-2.49976 -10.09524,-6.17357 -18.16609,-10.26232 -7.200164,-3.64766 -8.782801,-4.55373 -9.982112,-5.71485 -1.39455,-1.35013 -1.42231,-1.40626 -1.287413,-2.60307 0.220308,-1.95459 1.875124,-3.30691 4.046612,-3.30691 1.235609,0 4.616503,1.13779 6.471295,2.17782 6.296139,3.53041 14.24164,10.92087 19.277124,17.93052 1.500155,2.08829 1.914617,2.92998 1.426522,2.89701 -0.109141,-0.007 -0.912813,-0.51057 -1.785938,-1.1182 z m 6.13435,-0.19131 c -0.0808,-0.21828 -0.458,-2.06375 -0.83818,-4.10105 -0.87341,-4.68047 -2.3413,-10.3709 -4.504576,-17.46249 -2.083729,-6.83083 -2.502471,-8.58122 -2.507475,-10.481509 -0.0048,-1.829369 0.617255,-2.74184 2.150735,-3.154762 1.506484,-0.405654 3.212496,0.455359 4.388326,2.214758 3.26843,4.890573 4.41489,18.058423 2.54935,29.280883 -0.45879,2.75988 -0.99445,4.3624 -1.23818,3.70417 z m 6.41457,-0.22947 c 0.426,-0.79599 4.74291,-5.05935 6.89796,-6.81238 5.88728,-4.78905 11.4195,-7.55805 14.32238,-7.1687 1.93635,0.25972 3.13402,2.12803 2.23942,3.49337 -0.65358,0.99749 -2.28387,1.81507 -8.11043,4.06731 -6.31228,2.44 -10.10902,4.09697 -13.14521,5.73685 -1.19917,0.64768 -2.24516,1.1776 -2.32442,1.1776 -0.0793,0 -0.0251,-0.22232 0.1203,-0.49405 z m 9.27923,-0.51473 c -6e-5,-0.19567 3.50873,-1.64271 5.82081,-2.40053 4.1839,-1.37134 7.24512,-1.95283 10.45104,-1.98523 2.42056,-0.0245 3.08854,0.0597 3.96875,0.49975 1.27162,0.63581 1.83796,1.63913 1.47061,2.60533 -0.49113,1.29176 -0.7679,1.32386 -11.5909,1.3443 -5.56615,0.0105 -10.12029,-0.0181 -10.12031,-0.0636 z m -12.43544,-0.43277 c 0,-0.45298 1.55773,-4.89048 2.53851,-7.23146 3.00946,-7.18312 7.91204,-14.70853 11.89466,-18.25818 3.77472,-3.36435 6.68146,-3.718393 8.66928,-1.05593 1.27139,1.70289 -0.25626,3.90212 -7.20312,10.36967 -5.77247,5.3742 -9.28059,8.99182 -12.85242,13.25356 -2.19045,2.61354 -3.04691,3.43499 -3.04691,2.92234 z M 98.60545,125.793 c -2.410759,-3.38672 -4.297656,-5.71698 -8.24398,-10.18107 -5.160158,-5.83718 -6.055034,-7.23271 -5.527556,-8.62009 0.29183,-0.76757 1.508414,-1.51238 2.470341,-1.51238 0.861613,0 2.755487,1.26179 4.104915,2.73488 2.660001,2.90377 5.804561,8.71958 7.676988,14.19846 1.119742,3.27645 1.779902,5.77362 1.579352,5.97417 -0.0686,0.0686 -0.995657,-1.09866 -2.06006,-2.59397 z m 48.13502,-2.48661 c -1.0311,-1.1024 -1.48802,-1.24705 -2.78879,-0.88286 -0.6421,0.17978 -1.24603,0.2483 -1.34206,0.15226 -0.096,-0.096 0.0918,-0.72291 0.41737,-1.39306 l 0.59197,-1.21845 -0.67437,-1.01903 c -0.98785,-1.49274 -0.90669,-1.64954 0.7469,-1.44293 l 1.42126,0.17757 0.85093,-1.07439 c 0.95145,-1.2013 1.21444,-1.19131 1.46533,0.0556 0.32442,1.61243 0.42404,1.74929 1.60049,2.19857 1.2388,0.4731 1.52483,1.02617 0.67089,1.2972 -0.27904,0.0886 -0.81483,0.40289 -1.19063,0.69849 -0.54835,0.43133 -0.68327,0.76571 -0.68327,1.69327 0,1.43697 -0.27273,1.62725 -1.08602,0.75772 z m -80.361994,-0.64978 c -2.59773,-0.34668 -1.939682,-2.41621 0.880313,-2.76854 2.248051,-0.28088 6.287368,0.51411 10.386968,2.04428 0.763984,0.28516 1.389078,0.59921 1.389096,0.69789 4.3e-5,0.21819 -11.046555,0.2412 -12.656377,0.0263 z m 71.989154,-1.48887 c -0.85165,-0.16404 -0.83246,-1.47237 0.0273,-1.86412 0.5106,-0.23265 0.70148,-0.19164 1.06067,0.22786 0.40486,0.47285 0.40549,0.56119 0.008,1.16727 -0.2363,0.36064 -0.44571,0.6395 -0.46536,0.61968 -0.0196,-0.0198 -0.3036,-0.0876 -0.63103,-0.15069 z m -83.9801,-1.45913 c -0.352973,-1.1077 -0.620927,-1.33093 -2.471642,-2.05909 L 51.123,117.33757 51.783596,116.8271 c 1.884696,-1.45637 1.896168,-1.47456 1.710531,-2.71247 -0.100912,-0.67293 -0.06554,-1.23167 0.08382,-1.32398 0.142129,-0.0878 0.705689,0.19574 1.252357,0.63018 1.141408,0.90708 1.309148,0.93243 2.600161,0.39301 1.264944,-0.52853 1.315998,-0.5137 1.138881,0.33073 -0.497843,2.37352 -0.500565,2.33079 0.201813,3.16552 0.983316,1.1686 0.877938,1.39854 -0.640939,1.39854 -1.245828,0 -1.368981,0.063 -2.050521,1.04829 -0.398801,0.57656 -0.862621,1.05281 -1.030714,1.05834 -0.168092,0.006 -0.465748,-0.49247 -0.661458,-1.10665 z m 7.664722,-3.65253 c -0.370025,-0.40529 -0.392586,-0.6023 -0.132291,-1.15514 0.250883,-0.53284 0.446471,-0.63489 0.975275,-0.50885 0.796118,0.18974 0.68598,0.0763 0.886283,0.91291 0.125087,0.52245 0.05146,0.73821 -0.293508,0.86006 -0.253267,0.0895 -0.579546,0.21149 -0.725067,0.27116 -0.145521,0.0597 -0.465333,-0.11139 -0.710692,-0.38014 z m 46.615898,-1.83598 c 0,-0.87243 1.1438,-5.84975 1.85662,-8.07918 1.62667,-5.08763 4.47007,-9.640312 6.3092,-10.101904 0.87016,-0.218398 1.99656,0.426857 2.10872,1.207973 0.16131,1.123492 -0.19532,1.80067 -3.89025,7.386891 -2.01927,3.05285 -4.19251,6.51595 -4.82941,7.69577 -1.05743,1.95883 -1.55488,2.56363 -1.55488,1.89045 z m 19.84375,-1.56738 c 0,-0.49995 3.4371,-2.87323 5.95313,-4.11056 3.85652,-1.89655 6.25678,-2.06895 6.65606,-0.47808 0.24134,0.96158 -0.49599,1.46781 -3.14061,2.15626 -1.20589,0.31392 -3.62129,0.99673 -5.36754,1.51736 -1.74625,0.52062 -3.38336,1.00627 -3.63802,1.0792 -0.25466,0.0729 -0.46302,-0.001 -0.46302,-0.16418 z m -34.297366,-5.78419 c -0.562986,-0.69123 -2.598958,-2.89322 -4.524378,-4.89333 -1.925423,-2.0001 -3.576844,-3.939663 -3.669829,-4.310135 -0.115192,-0.458962 -0.01955,-0.838803 0.300183,-1.192093 1.582857,-1.749041 4.815459,1.367777 7.831801,7.551288 2.060179,4.22337 2.084322,5.32696 0.06222,2.84427 z m -16.231973,-2.24659 c -0.797023,-0.73462 -2.81073,-2.47931 -4.474904,-3.87709 -3.525091,-2.960817 -4.247943,-3.803978 -3.831492,-4.469188 0.764525,-1.221203 2.631787,-0.460696 4.863031,1.980641 1.878375,2.055237 5.31521,7.293497 4.990698,7.606567 -0.05401,0.0521 -0.750311,-0.50631 -1.547333,-1.24093 z m 29.984909,-3.17737 c 0.46576,-5.233636 2.85384,-12.917713 4.97086,-15.994702 1.46663,-2.131673 3.13816,-2.100324 3.13816,0.05886 0,0.971418 -0.48377,2.12862 -2.76625,6.617075 -1.52144,2.991871 -3.27123,6.744144 -3.88842,8.338387 -0.6172,1.59423 -1.23533,2.89861 -1.37362,2.89861 -0.15145,0 -0.18356,-0.76286 -0.0807,-1.91823 z m 22.60548,-8.334375 c -0.32887,-1.177695 -0.42972,-1.280515 -1.60287,-1.634146 -0.68856,-0.207558 -1.25193,-0.473956 -1.25193,-0.591995 0,-0.118038 0.47625,-0.51526 1.05834,-0.882713 1.00395,-0.633767 1.05833,-0.735902 1.05833,-1.987694 0,-1.512417 0.23095,-1.617568 1.39728,-0.636168 0.50762,0.427132 1.01806,0.636084 1.36111,0.557177 2.42998,-0.558924 2.3606,-0.558128 2.20079,-0.02525 -0.0832,0.277437 -0.30147,0.877618 -0.48503,1.333739 -0.31094,0.772662 -0.2759,0.902334 0.5131,1.89852 0.92336,1.165844 0.78337,1.520454 -0.48985,1.240811 -1.12265,-0.246579 -1.74747,0.0338 -2.38918,1.072105 -0.31013,0.501808 -0.66631,0.912381 -0.79151,0.912381 -0.12519,0 -0.38555,-0.565547 -0.57858,-1.256771 z m -71.646464,0.214053 c 0,-0.282453 -0.119062,-0.587137 -0.264583,-0.677074 -0.429467,-0.265425 -0.311047,-0.527593 0.513765,-1.137402 0.753859,-0.557352 0.803913,-0.560998 1.590918,-0.115903 0.70625,0.399423 0.790742,0.563414 0.645745,1.253305 -0.240903,1.146222 -0.294722,1.190625 -1.443127,1.190625 -0.855761,0 -1.042718,-0.09208 -1.042718,-0.513551 z m 5.748189,-0.176456 c -0.07163,-0.07163 -0.03264,-0.562983 0.08665,-1.091896 0.242409,-1.074801 0.083,-1.497192 -0.918585,-2.434066 -0.765202,-0.715758 -0.548759,-1.064482 0.665133,-1.071647 0.668028,-0.0039 1.562362,-0.708644 1.562362,-1.231085 0,-0.142629 0.16428,-0.483992 0.365064,-0.758583 0.342805,-0.468813 0.398545,-0.433634 0.914083,0.576902 0.560644,1.098956 1.102651,1.398426 2.543069,1.405104 l 0.779505,0.0036 -0.881883,0.909873 c -0.833671,0.860129 -0.872173,0.983083 -0.704247,2.248958 0.0977,0.736497 0.107826,1.339086 0.02249,1.339086 -0.08532,0 -0.611794,-0.262822 -1.169938,-0.584047 l -1.014804,-0.584049 -1.059338,0.701037 c -0.582637,0.385572 -1.117947,0.642432 -1.189575,0.570802 z m 56.763495,-1.001474 c -0.56531,-0.596445 -0.57272,-0.661528 -0.16767,-1.473454 0.33321,-0.667938 0.54439,-0.817073 0.98831,-0.69795 0.3105,0.08332 0.75988,0.15312 0.99862,0.155107 0.29875,0.0024 0.46803,0.294417 0.54297,0.936387 0.0955,0.818271 0.0129,0.980667 -0.67316,1.322916 -0.99584,0.496792 -0.98662,0.498118 -1.68907,-0.243006 z m -3.17466,-8.623501 c -0.82177,-0.665427 -0.53269,-1.767657 0.46361,-1.767657 0.97554,0 1.30306,0.985195 0.57091,1.717346 -0.45982,0.459822 -0.52489,0.462987 -1.03452,0.05031 z m -0.52208,-5.535936 c -0.47496,-0.396457 -0.55496,-0.666533 -0.4284,-1.446406 0.14599,-0.899623 0.21563,-0.958925 1.12617,-0.958925 0.87056,0 1.00535,0.09621 1.30819,0.933674 0.31281,0.865071 0.29242,0.971347 -0.27758,1.446406 -0.7627,0.635661 -0.99306,0.639027 -1.72838,0.02525 z"
           id="path826"
           inkscape:connector-curvature="0" />
        <text
           xml:space="preserve"
           style="font-style:normal;font-variant:normal;font-weight:normal;font-stretch:normal;font-size:113.43401337px;line-height:1.25;font-family:'Atteron Personal Use';-inkscape-font-specification:'Atteron Personal Use';letter-spacing:0px;word-spacing:0px;fill:#000000;fill-opacity:1;stroke:none;stroke-width:2.83585024"
           x="-766.70282"
           y="174.93608"
           id="text830"><tspan
             sodipodi:role="line"
             id="tspan828"
             x="-766.70282"
             y="174.93608"
             style="font-style:normal;font-variant:normal;font-weight:normal;font-stretch:normal;font-family:Helvetica;-inkscape-font-specification:Helvetica;letter-spacing:0.98425001px;stroke-width:2.83585024">CAPODANNOC<tspan
   style="fill:none"
   id="tspan840">O</tspan>N</tspan></text>
      </g>
      <text
         id="text852"
         y="154.65707"
         x="-172.12201"
         style="font-style:normal;font-variant:normal;font-weight:normal;font-stretch:normal;font-size:15.54964352px;line-height:1.25;font-family:'Atteron Personal Use';-inkscape-font-specification:'Atteron Personal Use';letter-spacing:0px;word-spacing:0px;fill:#000000;fill-opacity:1;stroke:none;stroke-width:0.38874108"
         xml:space="preserve"><tspan
           style="font-style:normal;font-variant:normal;font-weight:normal;font-stretch:normal;font-family:Helvetica;-inkscape-font-specification:Helvetica;stroke-width:0.38874108"
           y="154.65707"
           x="-172.12201"
           id="tspan850"
           sodipodi:role="line">2021</tspan></text>
    </g>
  </g>
</svg>
